<svg width="59" height="48" viewBox="0 0 59 48" fill="none" xmlns="http://www.w3.org/2000/svg">
<path d="M12.5411 7.61742L13.6982 9.52299L13.6982 9.52299L12.5411 7.61742ZM6.18107 13.6917L8.03423 14.931L8.03423 14.931L6.18107 13.6917ZM3.0475 21.8132L0.84156 21.4909L3.0475 21.8132ZM3.73298 30.4462L1.60566 31.113L1.60566 31.113L3.73298 30.4462ZM8.10788 37.958L9.74015 36.4395L9.74015 36.4395L8.10788 37.958ZM15.3449 42.9282L16.1809 40.8615L15.3449 42.9282ZM24.0755 44.417L24.0755 46.6463L24.0755 46.6463L24.0755 44.417ZM15.9734 5.8574C15.4518 3.68991 15.4507 3.69017 15.4497 3.69043C15.4493 3.69051 15.4482 3.69077 15.4475 3.69094C15.4461 3.69129 15.4447 3.69164 15.4432 3.69199C15.4403 3.69271 15.4374 3.69343 15.4344 3.69417C15.4284 3.69565 15.4223 3.69721 15.416 3.69882C15.4034 3.70206 15.3901 3.70557 15.3762 3.70938C15.3482 3.717 15.3174 3.72585 15.2835 3.73612C15.2159 3.75664 15.1355 3.78301 15.0411 3.81697C14.8527 3.8847 14.6048 3.9839 14.2861 4.12957C13.6504 4.42009 12.7145 4.90396 11.384 5.71184L13.6982 9.52299C14.9158 8.78367 15.696 8.38752 16.1395 8.18484C16.3603 8.08391 16.4928 8.03319 16.5498 8.01268C16.5781 8.00251 16.5867 8.00017 16.5774 8.003C16.5727 8.00443 16.5633 8.0072 16.5496 8.01095C16.5427 8.01282 16.5347 8.01495 16.5256 8.01729C16.5211 8.01845 16.5162 8.01967 16.5112 8.02094C16.5086 8.02157 16.506 8.02222 16.5033 8.02288C16.502 8.02321 16.5006 8.02353 16.4992 8.02387C16.4985 8.02404 16.4975 8.02429 16.4972 8.02437C16.4961 8.02463 16.4951 8.02488 15.9734 5.8574ZM11.384 5.71184C8.56108 7.42598 6.15114 9.72613 4.32792 12.4524L8.03423 14.931C9.49236 12.7507 11.4251 10.9033 13.6982 9.52299L11.384 5.71184ZM4.32792 12.4524C2.50455 15.1789 1.313 18.2644 0.84156 21.4909L5.25345 22.1356C5.62816 19.5711 6.57624 17.1112 8.03423 14.931L4.32792 12.4524ZM0.84156 21.4909C0.370096 24.7176 0.630876 28.003 1.60566 31.113L5.8603 29.7794C5.08603 27.3091 4.87876 24.6999 5.25345 22.1356L0.84156 21.4909ZM1.60566 31.113C2.58042 34.2228 4.24418 37.0778 6.47561 39.4765L9.74015 36.4395C7.95806 34.5239 6.63461 32.2498 5.8603 29.7794L1.60566 31.113ZM6.47561 39.4765C8.70687 41.8749 11.4503 43.7577 14.5089 44.9949L16.1809 40.8615C13.7205 39.8663 11.5224 38.3553 9.74015 36.4395L6.47561 39.4765ZM14.5089 44.9949C17.6211 46.2538 20.8644 46.6463 24.0755 46.6463L24.0755 42.1876C21.2137 42.1876 18.5877 41.8351 16.1809 40.8615L14.5089 44.9949ZM24.0755 46.6463L31.8674 46.6464L31.8674 42.1877L24.0755 42.1876L24.0755 46.6463Z" fill="#233C67"/>
<path d="M41.4518 24.3293L31.8973 42.4828L31.2604 46.3237H33.8082L45.9105 24.3293H41.4518Z" fill="#233C67" stroke="#233C67" stroke-width="0.636962"/>
<path d="M20.1135 2.35413L15.3362 4.07392L16.2917 7.76831C18.3963 6.68469 19.2613 5.49628 20.1135 2.35413Z" fill="#233C67" stroke="#233C67" stroke-width="0.636962"/>
<path d="M46.8272 40.887L45.6701 38.9815L45.6701 38.9815L46.8272 40.887ZM53.1872 34.8127L51.3341 33.5734L51.3341 33.5734L53.1872 34.8127ZM56.3208 26.6912L58.5267 27.0135L56.3208 26.6912ZM55.6353 18.0583L57.7626 17.3915L57.7626 17.3915L55.6353 18.0583ZM51.2604 10.5465L49.6281 12.0649L49.6281 12.0649L51.2604 10.5465ZM44.0234 5.57622L43.1874 7.64291L44.0234 5.57622ZM35.2928 4.08748L35.2928 1.85811L35.2928 1.85811L35.2928 4.08748ZM43.3949 42.6471C43.9165 44.8145 43.9176 44.8143 43.9186 44.814C43.919 44.8139 43.92 44.8137 43.9208 44.8135C43.9222 44.8132 43.9236 44.8128 43.9251 44.8125C43.928 44.8117 43.9309 44.811 43.9339 44.8103C43.9399 44.8088 43.946 44.8072 43.9523 44.8056C43.9649 44.8024 43.9781 44.7989 43.9921 44.7951C44.0201 44.7875 44.0509 44.7786 44.0848 44.7683C44.1524 44.7478 44.2328 44.7214 44.3272 44.6875C44.5156 44.6198 44.7635 44.5206 45.0822 44.3749C45.7179 44.0844 46.6538 43.6005 47.9843 42.7926L45.6701 38.9815C44.4525 39.7208 43.6723 40.1169 43.2288 40.3196C43.008 40.4205 42.8755 40.4713 42.8185 40.4918C42.7902 40.5019 42.7816 40.5043 42.7909 40.5015C42.7956 40.5 42.805 40.4973 42.8187 40.4935C42.8256 40.4916 42.8336 40.4895 42.8427 40.4872C42.8472 40.486 42.852 40.4848 42.8571 40.4835C42.8597 40.4829 42.8623 40.4822 42.865 40.4816C42.8663 40.4812 42.8677 40.4809 42.8691 40.4806C42.8697 40.4804 42.8708 40.4802 42.8711 40.4801C42.8722 40.4798 42.8732 40.4796 43.3949 42.6471ZM47.9843 42.7926C50.8072 41.0785 53.2171 38.7783 55.0404 36.0521L51.3341 33.5734C49.8759 35.7538 47.9432 37.6012 45.6701 38.9815L47.9843 42.7926ZM55.0404 36.0521C56.8637 33.3256 58.0553 30.24 58.5267 27.0135L54.1148 26.3689C53.7401 28.9334 52.792 31.3933 51.3341 33.5734L55.0404 36.0521ZM58.5267 27.0135C58.9982 23.7869 58.7374 20.5015 57.7626 17.3915L53.508 18.7251C54.2823 21.1953 54.4895 23.8046 54.1148 26.3689L58.5267 27.0135ZM57.7626 17.3915C56.7879 14.2816 55.1241 11.4266 52.8927 9.02797L49.6281 12.0649C51.4102 13.9806 52.7337 16.2547 53.508 18.7251L57.7626 17.3915ZM52.8927 9.02797C50.6614 6.62951 47.918 4.74675 44.8594 3.50953L43.1874 7.64291C45.6478 8.63816 47.8459 10.1491 49.6281 12.0649L52.8927 9.02797ZM44.8594 3.50953C41.7472 2.25064 38.5039 1.85817 35.2928 1.85811L35.2927 6.31685C38.1546 6.3169 40.7806 6.66933 43.1874 7.64291L44.8594 3.50953ZM35.2928 1.85811L27.5009 1.85806L27.5009 6.31679L35.2928 6.31685L35.2928 1.85811Z" fill="#DDD3C5"/>
<path d="M17.9165 24.1751L27.4709 6.02168L28.1079 2.1808H25.5601L13.4578 24.1751L17.9165 24.1751Z" fill="#DDD3C5" stroke="#DDD3C5" stroke-width="0.636962"/>
<path d="M39.2548 46.1503L44.032 44.4305L43.0765 40.7361C40.972 41.8198 40.1069 43.0082 39.2548 46.1503Z" fill="#DDD3C5" stroke="#DDD3C5" stroke-width="0.636962"/>
<path fill-rule="evenodd" clip-rule="evenodd" d="M27.5794 17.2029L18.618 33.0832C18.4248 33.4502 18.6909 33.8911 19.1057 33.8911H22.3714C22.5674 33.8911 22.7487 33.7869 22.8475 33.6176L25.0946 29.5835C25.1933 29.4142 25.3746 29.31 25.5707 29.31H33.5688C33.7766 29.31 33.9668 29.1931 34.0606 29.0077L36.1395 24.8982C36.2255 24.7283 36.2177 24.5261 36.1188 24.3633L31.7536 17.1736C31.6537 17.009 31.4751 16.9084 31.2825 16.9084H28.0672C27.8625 16.9084 27.6747 17.0218 27.5794 17.2029ZM26.2175 25.7241C26.2194 25.721 26.2195 25.7209 26.2213 25.7177C26.2794 25.6163 28.9537 20.9514 29.1701 20.5907C29.3889 20.2261 29.9208 20.2361 30.1257 20.6087L32.8828 25.7373C33.0848 26.1047 32.819 26.5541 32.3998 26.5541H26.693C26.2664 26.5541 26.0022 26.0908 26.2175 25.7241Z" fill="#233C67"/>
<path d="M29.1701 20.5907L29.4064 20.7325L29.1701 20.5907ZM32.8828 25.7373L32.64 25.8678L32.6413 25.8701L32.8828 25.7373ZM30.1257 20.6087L30.3685 20.4782L30.3672 20.4759L30.1257 20.6087ZM27.5794 17.2029L27.8195 17.3384L27.8233 17.3313L27.5794 17.2029ZM18.618 33.0832L18.3778 32.9477L18.3741 32.9548L18.618 33.0832ZM31.7536 17.1736L31.9892 17.0306V17.0306L31.7536 17.1736ZM36.1188 24.3633L35.8833 24.5063V24.5063L36.1188 24.3633ZM36.1395 24.8982L36.3854 25.0226V25.0226L36.1395 24.8982ZM34.0606 29.0077L34.3065 29.1321L34.0606 29.0077ZM25.0946 29.5835L24.8565 29.4446L24.8538 29.4494L25.0946 29.5835ZM22.8475 33.6176L23.0856 33.7565L23.0883 33.7517L22.8475 33.6176ZM26.2213 25.7177L25.9822 25.5806L26.2213 25.7177ZM26.2175 25.7241L25.9799 25.5846L26.2175 25.7241ZM28.9338 20.449C28.7155 20.8128 26.0388 25.482 25.9822 25.5806L26.4604 25.8548C26.52 25.7507 29.1919 21.0901 29.4064 20.7325L28.9338 20.449ZM26.693 26.8297H32.3998V26.2785H26.693V26.8297ZM33.1255 25.6068L30.3685 20.4782L29.883 20.7392L32.64 25.8678L33.1255 25.6068ZM32.3998 26.8297C33.0286 26.8297 33.4273 26.1555 33.1242 25.6045L32.6413 25.8701C32.7423 26.0538 32.6094 26.2785 32.3998 26.2785V26.8297ZM25.9799 25.5846C25.6568 26.1347 26.053 26.8297 26.693 26.8297V26.2785C26.4798 26.2785 26.3476 26.0469 26.4552 25.8637L25.9799 25.5846ZM29.4064 20.7325C29.5158 20.5502 29.7818 20.5552 29.8842 20.7415L30.3672 20.4759C30.0598 19.917 29.262 19.902 28.9338 20.449L29.4064 20.7325ZM27.3394 17.0675L18.3779 32.9477L18.858 33.2186L27.8194 17.3384L27.3394 17.0675ZM28.0672 17.184H31.2825V16.6329H28.0672V17.184ZM31.5181 17.3166L35.8833 24.5063L36.3544 24.2203L31.9892 17.0306L31.5181 17.3166ZM35.8936 24.7738L33.8147 28.8833L34.3065 29.1321L36.3854 25.0226L35.8936 24.7738ZM33.5688 29.0344H25.5707V29.5856H33.5688V29.0344ZM24.8538 29.4494L22.6067 33.4835L23.0883 33.7517L25.3353 29.7176L24.8538 29.4494ZM22.3714 33.6155H19.1057V34.1666H22.3714V33.6155ZM22.6094 33.4787C22.5601 33.5634 22.4694 33.6155 22.3714 33.6155V34.1666C22.6655 34.1666 22.9374 34.0105 23.0855 33.7565L22.6094 33.4787ZM25.5707 29.0344C25.2766 29.0344 25.0047 29.1906 24.8565 29.4446L25.3326 29.7224C25.382 29.6377 25.4726 29.5856 25.5707 29.5856V29.0344ZM33.8147 28.8833C33.7678 28.976 33.6727 29.0344 33.5688 29.0344V29.5856C33.8805 29.5856 34.1658 29.4103 34.3065 29.1321L33.8147 28.8833ZM35.8833 24.5063C35.9327 24.5877 35.9366 24.6888 35.8936 24.7738L36.3854 25.0226C36.5144 24.7677 36.5026 24.4644 36.3544 24.2203L35.8833 24.5063ZM31.2825 17.184C31.3788 17.184 31.4681 17.2343 31.5181 17.3166L31.9892 17.0306C31.8393 16.7836 31.5714 16.6329 31.2825 16.6329V17.184ZM18.3741 32.9548C18.0843 33.5054 18.4835 34.1666 19.1057 34.1666V33.6155C18.8983 33.6155 18.7652 33.395 18.8618 33.2115L18.3741 32.9548ZM27.8233 17.3313C27.8709 17.2407 27.9648 17.184 28.0672 17.184V16.6329C27.7602 16.6329 27.4785 16.8029 27.3355 17.0746L27.8233 17.3313ZM25.9822 25.5806C25.982 25.5809 25.9821 25.5808 25.9823 25.5805C25.9824 25.5804 25.9825 25.5802 25.9825 25.5801C25.9826 25.5799 25.9827 25.5798 25.9827 25.5798C25.9826 25.5799 25.9814 25.582 25.9799 25.5846L26.4552 25.8637C26.4555 25.8631 26.4552 25.8636 26.4561 25.862C26.4575 25.8598 26.4587 25.8576 26.4604 25.8548L25.9822 25.5806Z" fill="#233C67"/>
</svg>
