<svg width="230" height="62" viewBox="0 0 230 62" fill="none" xmlns="http://www.w3.org/2000/svg">
<path d="M12.5411 14.6174L13.6982 16.523L13.6982 16.523L12.5411 14.6174ZM6.18107 20.6917L8.03423 21.931L8.03423 21.931L6.18107 20.6917ZM3.0475 28.8132L0.84156 28.4909L3.0475 28.8132ZM3.73298 37.4462L1.60566 38.113L1.60566 38.113L3.73298 37.4462ZM8.10788 44.958L9.74015 43.4395L9.74015 43.4395L8.10788 44.958ZM15.3449 49.9282L16.1809 47.8615L15.3449 49.9282ZM24.0755 51.417L24.0755 53.6463L24.0755 53.6463L24.0755 51.417ZM15.9734 12.8574C15.4518 10.6899 15.4507 10.6902 15.4497 10.6904C15.4493 10.6905 15.4482 10.6908 15.4475 10.6909C15.4461 10.6913 15.4447 10.6916 15.4432 10.692C15.4403 10.6927 15.4374 10.6934 15.4344 10.6942C15.4284 10.6957 15.4223 10.6972 15.416 10.6988C15.4034 10.7021 15.3901 10.7056 15.3762 10.7094C15.3482 10.717 15.3174 10.7259 15.2835 10.7361C15.2159 10.7566 15.1355 10.783 15.0411 10.817C14.8527 10.8847 14.6048 10.9839 14.2861 11.1296C13.6504 11.4201 12.7145 11.904 11.384 12.7118L13.6982 16.523C14.9158 15.7837 15.696 15.3875 16.1395 15.1848C16.3603 15.0839 16.4928 15.0332 16.5498 15.0127C16.5781 15.0025 16.5867 15.0002 16.5774 15.003C16.5727 15.0044 16.5633 15.0072 16.5496 15.0109C16.5427 15.0128 16.5347 15.0149 16.5256 15.0173C16.5211 15.0185 16.5162 15.0197 16.5112 15.0209C16.5086 15.0216 16.506 15.0222 16.5033 15.0229C16.502 15.0232 16.5006 15.0235 16.4992 15.0239C16.4985 15.024 16.4975 15.0243 16.4972 15.0244C16.4961 15.0246 16.4951 15.0249 15.9734 12.8574ZM11.384 12.7118C8.56108 14.426 6.15114 16.7261 4.32792 19.4524L8.03423 21.931C9.49236 19.7507 11.4251 17.9033 13.6982 16.523L11.384 12.7118ZM4.32792 19.4524C2.50455 22.1789 1.313 25.2644 0.84156 28.4909L5.25345 29.1356C5.62816 26.5711 6.57624 24.1112 8.03423 21.931L4.32792 19.4524ZM0.84156 28.4909C0.370096 31.7176 0.630876 35.003 1.60566 38.113L5.8603 36.7794C5.08603 34.3091 4.87876 31.6999 5.25345 29.1356L0.84156 28.4909ZM1.60566 38.113C2.58042 41.2228 4.24418 44.0778 6.47561 46.4765L9.74015 43.4395C7.95806 41.5239 6.63461 39.2498 5.8603 36.7794L1.60566 38.113ZM6.47561 46.4765C8.70687 48.8749 11.4503 50.7577 14.5089 51.9949L16.1809 47.8615C13.7205 46.8663 11.5224 45.3553 9.74015 43.4395L6.47561 46.4765ZM14.5089 51.9949C17.6211 53.2538 20.8644 53.6463 24.0755 53.6463L24.0755 49.1876C21.2137 49.1876 18.5877 48.8351 16.1809 47.8615L14.5089 51.9949ZM24.0755 53.6463L31.8674 53.6464L31.8674 49.1877L24.0755 49.1876L24.0755 53.6463Z" fill="#233C67"/>
<path d="M41.4518 31.3293L31.8973 49.4828L31.2604 53.3237H33.8082L45.9105 31.3293H41.4518Z" fill="#233C67" stroke="#233C67" stroke-width="0.636962"/>
<path d="M20.1135 9.35413L15.3362 11.0739L16.2917 14.7683C18.3963 13.6847 19.2613 12.4963 20.1135 9.35413Z" fill="#233C67" stroke="#233C67" stroke-width="0.636962"/>
<path d="M46.8272 47.887L45.6701 45.9815L45.6701 45.9815L46.8272 47.887ZM53.1872 41.8127L51.3341 40.5734L51.3341 40.5734L53.1872 41.8127ZM56.3208 33.6912L58.5267 34.0135L56.3208 33.6912ZM55.6353 25.0583L57.7626 24.3915L57.7626 24.3915L55.6353 25.0583ZM51.2604 17.5465L49.6281 19.0649L49.6281 19.0649L51.2604 17.5465ZM44.0234 12.5762L43.1874 14.6429L44.0234 12.5762ZM35.2928 11.0875L35.2928 8.85811L35.2928 8.85811L35.2928 11.0875ZM43.3949 49.6471C43.9165 51.8145 43.9176 51.8143 43.9186 51.814C43.919 51.8139 43.92 51.8137 43.9208 51.8135C43.9222 51.8132 43.9236 51.8128 43.9251 51.8125C43.928 51.8117 43.9309 51.811 43.9339 51.8103C43.9399 51.8088 43.946 51.8072 43.9523 51.8056C43.9649 51.8024 43.9781 51.7989 43.9921 51.7951C44.0201 51.7875 44.0509 51.7786 44.0848 51.7683C44.1524 51.7478 44.2328 51.7214 44.3272 51.6875C44.5156 51.6198 44.7635 51.5206 45.0822 51.3749C45.7179 51.0844 46.6538 50.6005 47.9843 49.7926L45.6701 45.9815C44.4525 46.7208 43.6723 47.1169 43.2288 47.3196C43.008 47.4205 42.8755 47.4713 42.8185 47.4918C42.7902 47.5019 42.7816 47.5043 42.7909 47.5015C42.7956 47.5 42.805 47.4973 42.8187 47.4935C42.8256 47.4916 42.8336 47.4895 42.8427 47.4872C42.8472 47.486 42.852 47.4848 42.8571 47.4835C42.8597 47.4829 42.8623 47.4822 42.865 47.4816C42.8663 47.4812 42.8677 47.4809 42.8691 47.4806C42.8697 47.4804 42.8708 47.4802 42.8711 47.4801C42.8722 47.4798 42.8732 47.4796 43.3949 49.6471ZM47.9843 49.7926C50.8072 48.0785 53.2171 45.7783 55.0404 43.0521L51.3341 40.5734C49.8759 42.7538 47.9432 44.6012 45.6701 45.9815L47.9843 49.7926ZM55.0404 43.0521C56.8637 40.3256 58.0553 37.24 58.5267 34.0135L54.1148 33.3689C53.7401 35.9334 52.792 38.3933 51.3341 40.5734L55.0404 43.0521ZM58.5267 34.0135C58.9982 30.7869 58.7374 27.5015 57.7626 24.3915L53.508 25.7251C54.2823 28.1953 54.4895 30.8046 54.1148 33.3689L58.5267 34.0135ZM57.7626 24.3915C56.7879 21.2816 55.1241 18.4266 52.8927 16.028L49.6281 19.0649C51.4102 20.9806 52.7337 23.2547 53.508 25.7251L57.7626 24.3915ZM52.8927 16.028C50.6614 13.6295 47.918 11.7467 44.8594 10.5095L43.1874 14.6429C45.6478 15.6382 47.8459 17.1491 49.6281 19.0649L52.8927 16.028ZM44.8594 10.5095C41.7472 9.25064 38.5039 8.85817 35.2928 8.85811L35.2927 13.3168C38.1546 13.3169 40.7806 13.6693 43.1874 14.6429L44.8594 10.5095ZM35.2928 8.85811L27.5009 8.85806L27.5009 13.3168L35.2928 13.3168L35.2928 8.85811Z" fill="#DDD3C5"/>
<path d="M17.9165 31.1751L27.4709 13.0217L28.1079 9.1808H25.5601L13.4578 31.1751L17.9165 31.1751Z" fill="#DDD3C5" stroke="#DDD3C5" stroke-width="0.636962"/>
<path d="M39.2548 53.1503L44.032 51.4305L43.0765 47.7361C40.972 48.8198 40.1069 50.0082 39.2548 53.1503Z" fill="#DDD3C5" stroke="#DDD3C5" stroke-width="0.636962"/>
<path fill-rule="evenodd" clip-rule="evenodd" d="M27.5794 24.2029L18.618 40.0832C18.4248 40.4502 18.6909 40.8911 19.1057 40.8911H22.3714C22.5674 40.8911 22.7487 40.7869 22.8475 40.6176L25.0946 36.5835C25.1933 36.4142 25.3746 36.31 25.5707 36.31H33.5688C33.7766 36.31 33.9668 36.1931 34.0606 36.0077L36.1395 31.8982C36.2255 31.7283 36.2177 31.5261 36.1188 31.3633L31.7536 24.1736C31.6537 24.009 31.4751 23.9084 31.2825 23.9084H28.0672C27.8625 23.9084 27.6747 24.0218 27.5794 24.2029ZM26.2175 32.7241C26.2194 32.721 26.2195 32.7209 26.2213 32.7177C26.2794 32.6163 28.9537 27.9514 29.1701 27.5907C29.3889 27.2261 29.9208 27.2361 30.1257 27.6087L32.8828 32.7373C33.0848 33.1047 32.819 33.5541 32.3998 33.5541H26.693C26.2664 33.5541 26.0022 33.0908 26.2175 32.7241Z" fill="#233C67"/>
<path d="M29.1701 27.5907L29.4064 27.7325L29.1701 27.5907ZM32.8828 32.7373L32.64 32.8678L32.6413 32.8701L32.8828 32.7373ZM30.1257 27.6087L30.3685 27.4782L30.3672 27.4759L30.1257 27.6087ZM27.5794 24.2029L27.8195 24.3384L27.8233 24.3313L27.5794 24.2029ZM18.618 40.0832L18.3778 39.9477L18.3741 39.9548L18.618 40.0832ZM31.7536 24.1736L31.9892 24.0306V24.0306L31.7536 24.1736ZM36.1188 31.3633L35.8833 31.5063V31.5063L36.1188 31.3633ZM36.1395 31.8982L36.3854 32.0226V32.0226L36.1395 31.8982ZM34.0606 36.0077L34.3065 36.1321L34.0606 36.0077ZM25.0946 36.5835L24.8565 36.4446L24.8538 36.4494L25.0946 36.5835ZM22.8475 40.6176L23.0856 40.7565L23.0883 40.7517L22.8475 40.6176ZM26.2213 32.7177L25.9822 32.5806L26.2213 32.7177ZM26.2175 32.7241L25.9799 32.5846L26.2175 32.7241ZM28.9338 27.449C28.7155 27.8128 26.0388 32.482 25.9822 32.5806L26.4604 32.8548C26.52 32.7507 29.1919 28.0901 29.4064 27.7325L28.9338 27.449ZM26.693 33.8297H32.3998V33.2785H26.693V33.8297ZM33.1255 32.6068L30.3685 27.4782L29.883 27.7392L32.64 32.8678L33.1255 32.6068ZM32.3998 33.8297C33.0286 33.8297 33.4273 33.1555 33.1242 32.6045L32.6413 32.8701C32.7423 33.0538 32.6094 33.2785 32.3998 33.2785V33.8297ZM25.9799 32.5846C25.6568 33.1347 26.053 33.8297 26.693 33.8297V33.2785C26.4798 33.2785 26.3476 33.0469 26.4552 32.8637L25.9799 32.5846ZM29.4064 27.7325C29.5158 27.5502 29.7818 27.5552 29.8842 27.7415L30.3672 27.4759C30.0598 26.917 29.262 26.902 28.9338 27.449L29.4064 27.7325ZM27.3394 24.0675L18.3779 39.9477L18.858 40.2186L27.8194 24.3384L27.3394 24.0675ZM28.0672 24.184H31.2825V23.6329H28.0672V24.184ZM31.5181 24.3166L35.8833 31.5063L36.3544 31.2203L31.9892 24.0306L31.5181 24.3166ZM35.8936 31.7738L33.8147 35.8833L34.3065 36.1321L36.3854 32.0226L35.8936 31.7738ZM33.5688 36.0344H25.5707V36.5856H33.5688V36.0344ZM24.8538 36.4494L22.6067 40.4835L23.0883 40.7517L25.3353 36.7176L24.8538 36.4494ZM22.3714 40.6155H19.1057V41.1666H22.3714V40.6155ZM22.6094 40.4787C22.5601 40.5634 22.4694 40.6155 22.3714 40.6155V41.1666C22.6655 41.1666 22.9374 41.0105 23.0855 40.7565L22.6094 40.4787ZM25.5707 36.0344C25.2766 36.0344 25.0047 36.1906 24.8565 36.4446L25.3326 36.7224C25.382 36.6377 25.4726 36.5856 25.5707 36.5856V36.0344ZM33.8147 35.8833C33.7678 35.976 33.6727 36.0344 33.5688 36.0344V36.5856C33.8805 36.5856 34.1658 36.4103 34.3065 36.1321L33.8147 35.8833ZM35.8833 31.5063C35.9327 31.5877 35.9366 31.6888 35.8936 31.7738L36.3854 32.0226C36.5144 31.7677 36.5026 31.4644 36.3544 31.2203L35.8833 31.5063ZM31.2825 24.184C31.3788 24.184 31.4681 24.2343 31.5181 24.3166L31.9892 24.0306C31.8393 23.7836 31.5714 23.6329 31.2825 23.6329V24.184ZM18.3741 39.9548C18.0843 40.5054 18.4835 41.1666 19.1057 41.1666V40.6155C18.8983 40.6155 18.7652 40.395 18.8618 40.2115L18.3741 39.9548ZM27.8233 24.3313C27.8709 24.2407 27.9648 24.184 28.0672 24.184V23.6329C27.7602 23.6329 27.4785 23.8029 27.3355 24.0746L27.8233 24.3313ZM25.9822 32.5806C25.982 32.5809 25.9821 32.5808 25.9823 32.5805C25.9824 32.5804 25.9825 32.5802 25.9825 32.5801C25.9826 32.5799 25.9827 32.5798 25.9827 32.5798C25.9826 32.5799 25.9814 32.582 25.9799 32.5846L26.4552 32.8637C26.4555 32.8631 26.4552 32.8636 26.4561 32.862C26.4575 32.8598 26.4587 32.8576 26.4604 32.8548L25.9822 32.5806Z" fill="#233C67"/>
<path d="M85.6457 25.2315L83.7913 20.1635C83.7 19.9387 83.6052 19.6718 83.5068 19.3627C83.4085 19.0537 83.3101 18.72 83.2118 18.3618C83.1205 18.72 83.0256 19.0572 82.9273 19.3733C82.829 19.6823 82.7341 19.9528 82.6428 20.1846L80.799 25.2315H85.6457ZM90.6505 30.9844H88.4589C88.2131 30.9844 88.0129 30.9247 87.8583 30.8053C87.7038 30.6788 87.5879 30.5243 87.5106 30.3417L86.3727 27.2334H80.0614L78.9235 30.3417C78.8673 30.5032 78.7584 30.6507 78.5969 30.7842C78.4353 30.9176 78.2351 30.9844 77.9963 30.9844H75.7836L81.7788 15.7488H84.6658L90.6505 30.9844ZM104.334 23.3455V29.5093C103.561 30.0782 102.736 30.4962 101.858 30.7631C100.987 31.023 100.053 31.153 99.0554 31.153C97.8121 31.153 96.6847 30.9598 95.6732 30.5735C94.6687 30.1871 93.8083 29.6498 93.0918 28.9614C92.3823 28.273 91.8345 27.4512 91.4481 26.4959C91.0618 25.5406 90.8686 24.4975 90.8686 23.3666C90.8686 22.2216 91.0548 21.1715 91.4271 20.2162C91.7993 19.2609 92.3262 18.439 93.0075 17.7507C93.6959 17.0623 94.5283 16.5284 95.5046 16.1491C96.481 15.7698 97.5768 15.5802 98.792 15.5802C99.4101 15.5802 99.9861 15.6293 100.52 15.7277C101.061 15.826 101.56 15.963 102.016 16.1386C102.48 16.3072 102.901 16.5144 103.28 16.7602C103.66 17.0061 104.008 17.2765 104.324 17.5715L103.512 18.857C103.386 19.0607 103.221 19.1871 103.017 19.2363C102.813 19.2784 102.592 19.2258 102.353 19.0783C102.121 18.9448 101.89 18.8113 101.658 18.6779C101.426 18.5444 101.166 18.4285 100.878 18.3302C100.597 18.2318 100.278 18.151 99.9194 18.0878C99.5682 18.0246 99.1608 17.993 98.6972 17.993C97.9456 17.993 97.2642 18.1194 96.6531 18.3723C96.049 18.6252 95.5327 18.9869 95.1043 19.4576C94.6758 19.9282 94.3456 20.4936 94.1138 21.1539C93.882 21.8142 93.7661 22.5517 93.7661 23.3666C93.7661 24.2376 93.8891 25.0173 94.1349 25.7056C94.3878 26.387 94.739 26.9665 95.1885 27.4441C95.6451 27.9148 96.193 28.2765 96.8322 28.5294C97.4714 28.7752 98.1844 28.8982 98.9711 28.8982C99.533 28.8982 100.035 28.8385 100.478 28.7191C100.92 28.5996 101.352 28.4381 101.774 28.2344V25.4738H99.8562C99.6735 25.4738 99.5295 25.4247 99.4242 25.3263C99.3258 25.221 99.2767 25.0945 99.2767 24.947V23.3455H104.334ZM123.586 15.7488V30.9844H121.089V21.1434C121.089 20.75 121.11 20.3251 121.152 19.8685L116.548 28.5189C116.33 28.9333 115.996 29.1405 115.547 29.1405H115.146C114.697 29.1405 114.363 28.9333 114.145 28.5189L109.488 19.8369C109.509 20.0687 109.527 20.297 109.541 20.5217C109.555 20.7465 109.562 20.9537 109.562 21.1434V30.9844H107.065V15.7488H109.204C109.33 15.7488 109.439 15.7523 109.53 15.7593C109.622 15.7663 109.702 15.7839 109.773 15.812C109.85 15.8401 109.917 15.8857 109.973 15.9489C110.036 16.0122 110.096 16.0965 110.152 16.2018L114.714 24.6625C114.834 24.8873 114.943 25.1191 115.041 25.3579C115.146 25.5968 115.248 25.8426 115.346 26.0955C115.445 25.8356 115.547 25.5862 115.652 25.3474C115.757 25.1016 115.87 24.8662 115.989 24.6415L120.488 16.2018C120.544 16.0965 120.604 16.0122 120.667 15.9489C120.731 15.8857 120.797 15.8401 120.868 15.812C120.945 15.7839 121.029 15.7663 121.12 15.7593C121.212 15.7523 121.321 15.7488 121.447 15.7488H123.586ZM139.46 25.2315L137.605 20.1635C137.514 19.9387 137.419 19.6718 137.321 19.3627C137.222 19.0537 137.124 18.72 137.026 18.3618C136.934 18.72 136.839 19.0572 136.741 19.3733C136.643 19.6823 136.548 19.9528 136.457 20.1846L134.613 25.2315H139.46ZM144.464 30.9844H142.273C142.027 30.9844 141.827 30.9247 141.672 30.8053C141.518 30.6788 141.402 30.5243 141.324 30.3417L140.187 27.2334H133.875L132.737 30.3417C132.681 30.5032 132.572 30.6507 132.411 30.7842C132.249 30.9176 132.049 30.9844 131.81 30.9844H129.597L135.593 15.7488H138.48L144.464 30.9844ZM148.212 28.1817C148.507 28.5399 148.827 28.7928 149.171 28.9403C149.522 29.0878 149.902 29.1616 150.309 29.1616C150.702 29.1616 151.057 29.0878 151.373 28.9403C151.689 28.7928 151.956 28.568 152.174 28.266C152.399 27.9639 152.571 27.5846 152.69 27.1281C152.81 26.6645 152.869 26.1201 152.869 25.4949C152.869 24.8627 152.817 24.3289 152.711 23.8934C152.613 23.4509 152.469 23.0926 152.279 22.8187C152.09 22.5447 151.858 22.3445 151.584 22.2181C151.317 22.0917 151.011 22.0284 150.667 22.0284C150.126 22.0284 149.666 22.1443 149.287 22.3761C148.908 22.6009 148.549 22.9205 148.212 23.335V28.1817ZM148.075 21.6491C148.518 21.1504 149.02 20.7465 149.582 20.4374C150.144 20.1284 150.804 19.9738 151.563 19.9738C152.153 19.9738 152.69 20.0968 153.175 20.3426C153.667 20.5885 154.088 20.9467 154.439 21.4173C154.798 21.8809 155.071 22.4569 155.261 23.1453C155.458 23.8267 155.556 24.6099 155.556 25.4949C155.556 26.3027 155.447 27.0508 155.23 27.7392C155.012 28.4275 154.699 29.0246 154.292 29.5304C153.891 30.0361 153.403 30.433 152.827 30.721C152.258 31.0019 151.619 31.1424 150.91 31.1424C150.306 31.1424 149.789 31.0511 149.361 30.8685C148.932 30.6788 148.549 30.4189 148.212 30.0888V34.5141H145.61V20.174H147.201C147.538 20.174 147.759 20.3321 147.865 20.6482L148.075 21.6491ZM160.189 28.1817C160.484 28.5399 160.804 28.7928 161.148 28.9403C161.499 29.0878 161.879 29.1616 162.286 29.1616C162.679 29.1616 163.034 29.0878 163.35 28.9403C163.666 28.7928 163.933 28.568 164.151 28.266C164.376 27.9639 164.548 27.5846 164.667 27.1281C164.787 26.6645 164.846 26.1201 164.846 25.4949C164.846 24.8627 164.794 24.3289 164.688 23.8934C164.59 23.4509 164.446 23.0926 164.256 22.8187C164.067 22.5447 163.835 22.3445 163.561 22.2181C163.294 22.0917 162.988 22.0284 162.644 22.0284C162.103 22.0284 161.643 22.1443 161.264 22.3761C160.885 22.6009 160.526 22.9205 160.189 23.335V28.1817ZM160.052 21.6491C160.495 21.1504 160.997 20.7465 161.559 20.4374C162.121 20.1284 162.781 19.9738 163.54 19.9738C164.13 19.9738 164.667 20.0968 165.152 20.3426C165.644 20.5885 166.065 20.9467 166.416 21.4173C166.774 21.8809 167.048 22.4569 167.238 23.1453C167.435 23.8267 167.533 24.6099 167.533 25.4949C167.533 26.3027 167.424 27.0508 167.206 27.7392C166.989 28.4275 166.676 29.0246 166.269 29.5304C165.868 30.0361 165.38 30.433 164.804 30.721C164.235 31.0019 163.596 31.1424 162.887 31.1424C162.282 31.1424 161.766 31.0511 161.338 30.8685C160.909 30.6788 160.526 30.4189 160.189 30.0888V34.5141H157.587V20.174H159.178C159.515 20.174 159.736 20.3321 159.841 20.6482L160.052 21.6491ZM172.198 15.3273V30.9844H169.595V15.3273H172.198ZM177.488 20.174V30.9844H174.875V20.174H177.488ZM177.846 17.0237C177.846 17.2484 177.801 17.4592 177.709 17.6558C177.618 17.8525 177.495 18.0246 177.34 18.1721C177.193 18.3196 177.017 18.439 176.814 18.5304C176.61 18.6146 176.392 18.6568 176.16 18.6568C175.936 18.6568 175.721 18.6146 175.518 18.5304C175.321 18.439 175.149 18.3196 175.001 18.1721C174.854 18.0246 174.734 17.8525 174.643 17.6558C174.559 17.4592 174.517 17.2484 174.517 17.0237C174.517 16.7919 174.559 16.5741 174.643 16.3704C174.734 16.1667 174.854 15.9911 175.001 15.8436C175.149 15.6961 175.321 15.5802 175.518 15.4959C175.721 15.4046 175.936 15.3589 176.16 15.3589C176.392 15.3589 176.61 15.4046 176.814 15.4959C177.017 15.5802 177.193 15.6961 177.34 15.8436C177.495 15.9911 177.618 16.1667 177.709 16.3704C177.801 16.5741 177.846 16.7919 177.846 17.0237ZM187.885 22.4604C187.808 22.5588 187.731 22.636 187.654 22.6922C187.583 22.7484 187.478 22.7765 187.338 22.7765C187.204 22.7765 187.074 22.7379 186.948 22.6606C186.821 22.5763 186.67 22.485 186.495 22.3867C186.319 22.2813 186.108 22.19 185.862 22.1127C185.624 22.0284 185.325 21.9863 184.967 21.9863C184.51 21.9863 184.11 22.0706 183.766 22.2392C183.421 22.4007 183.134 22.636 182.902 22.9451C182.677 23.2542 182.508 23.63 182.396 24.0725C182.284 24.508 182.227 25.0032 182.227 25.5581C182.227 26.1341 182.287 26.6469 182.406 27.0964C182.533 27.546 182.712 27.9253 182.944 28.2344C183.176 28.5364 183.457 28.7682 183.787 28.9298C184.117 29.0843 184.489 29.1616 184.904 29.1616C185.318 29.1616 185.652 29.1124 185.905 29.0141C186.164 28.9087 186.382 28.7963 186.558 28.6769C186.733 28.5505 186.884 28.4381 187.011 28.3397C187.144 28.2344 187.292 28.1817 187.453 28.1817C187.664 28.1817 187.822 28.2625 187.928 28.424L188.676 29.3723C188.388 29.7095 188.075 29.994 187.738 30.2258C187.401 30.4505 187.05 30.6332 186.684 30.7736C186.326 30.9071 185.954 31.0019 185.567 31.0581C185.188 31.1143 184.809 31.1424 184.429 31.1424C183.762 31.1424 183.134 31.0195 182.543 30.7736C181.953 30.5208 181.437 30.1555 180.995 29.6779C180.552 29.2002 180.201 28.6172 179.941 27.9288C179.688 27.2334 179.562 26.4432 179.562 25.5581C179.562 24.7644 179.674 24.0304 179.899 23.356C180.131 22.6747 180.468 22.0881 180.91 21.5964C181.353 21.0977 181.901 20.7079 182.554 20.4269C183.207 20.1459 183.959 20.0055 184.809 20.0055C185.617 20.0055 186.323 20.1354 186.927 20.3953C187.538 20.6552 188.086 21.0275 188.57 21.5122L187.885 22.4604ZM196.018 26.3694C195.266 26.4046 194.634 26.4713 194.121 26.5696C193.609 26.6609 193.198 26.7804 192.889 26.9279C192.579 27.0754 192.358 27.2475 192.225 27.4441C192.091 27.6408 192.025 27.8551 192.025 28.0869C192.025 28.5434 192.158 28.8701 192.425 29.0668C192.699 29.2634 193.054 29.3618 193.489 29.3618C194.023 29.3618 194.483 29.2669 194.869 29.0773C195.263 28.8806 195.646 28.5856 196.018 28.1922V26.3694ZM190.054 21.6807C191.298 20.5428 192.794 19.9738 194.543 19.9738C195.175 19.9738 195.74 20.0792 196.239 20.2899C196.738 20.4936 197.159 20.7816 197.503 21.1539C197.848 21.5192 198.108 21.9582 198.283 22.471C198.466 22.9837 198.557 23.5457 198.557 24.1568V30.9844H197.377C197.131 30.9844 196.942 30.9493 196.808 30.879C196.675 30.8017 196.569 30.6507 196.492 30.4259L196.26 29.6463C195.986 29.8921 195.719 30.1099 195.459 30.2995C195.2 30.4821 194.929 30.6367 194.648 30.7631C194.367 30.8895 194.065 30.9844 193.742 31.0476C193.426 31.1178 193.075 31.153 192.688 31.153C192.232 31.153 191.81 31.0933 191.424 30.9738C191.038 30.8474 190.704 30.6613 190.423 30.4154C190.142 30.1696 189.924 29.864 189.77 29.4987C189.615 29.1335 189.538 28.7085 189.538 28.2238C189.538 27.9499 189.584 27.6795 189.675 27.4125C189.766 27.1386 189.914 26.8787 190.117 26.6328C190.328 26.387 190.599 26.1552 190.929 25.9374C191.259 25.7197 191.663 25.53 192.14 25.3685C192.625 25.2069 193.187 25.077 193.826 24.9786C194.466 24.8733 195.196 24.81 196.018 24.789V24.1568C196.018 23.4333 195.863 22.8994 195.554 22.5553C195.245 22.204 194.799 22.0284 194.216 22.0284C193.795 22.0284 193.443 22.0776 193.163 22.176C192.889 22.2743 192.646 22.3867 192.435 22.5131C192.225 22.6325 192.032 22.7414 191.856 22.8397C191.687 22.9381 191.498 22.9873 191.287 22.9873C191.104 22.9873 190.95 22.9416 190.823 22.8503C190.697 22.7519 190.595 22.6396 190.518 22.5131L190.054 21.6807ZM203.442 21.5016C203.66 21.2839 203.888 21.0837 204.127 20.901C204.373 20.7114 204.629 20.5533 204.896 20.4269C205.17 20.2934 205.462 20.1916 205.771 20.1214C206.08 20.0441 206.417 20.0055 206.782 20.0055C207.372 20.0055 207.895 20.1073 208.352 20.311C208.809 20.5077 209.188 20.7887 209.49 21.1539C209.799 21.5122 210.031 21.9442 210.185 22.4499C210.347 22.9486 210.428 23.5 210.428 24.1041V30.9844H207.825V24.1041C207.825 23.4438 207.674 22.9346 207.372 22.5763C207.07 22.2111 206.61 22.0284 205.992 22.0284C205.542 22.0284 205.121 22.1303 204.728 22.334C204.334 22.5377 203.962 22.8152 203.611 23.1664V30.9844H201.008V20.174H202.599C202.936 20.174 203.158 20.3321 203.263 20.6482L203.442 21.5016ZM216.362 31.153C215.421 31.153 214.697 30.8895 214.192 30.3627C213.693 29.8289 213.444 29.0948 213.444 28.1606V22.1233H212.337C212.197 22.1233 212.077 22.0776 211.979 21.9863C211.881 21.895 211.832 21.758 211.832 21.5754V20.5428L213.57 20.2583L214.118 17.3081C214.153 17.1677 214.22 17.0588 214.318 16.9815C214.416 16.9042 214.543 16.8656 214.697 16.8656H216.046V20.2689H218.933V22.1233H216.046V27.9815C216.046 28.3187 216.127 28.5821 216.288 28.7717C216.457 28.9614 216.685 29.0562 216.973 29.0562C217.135 29.0562 217.268 29.0387 217.374 29.0035C217.486 28.9614 217.581 28.9192 217.658 28.8771C217.742 28.835 217.816 28.7963 217.879 28.7612C217.943 28.7191 218.006 28.698 218.069 28.698C218.146 28.698 218.21 28.7191 218.259 28.7612C218.308 28.7963 218.361 28.8525 218.417 28.9298L219.196 30.1941C218.817 30.5102 218.382 30.7491 217.89 30.9106C217.398 31.0722 216.889 31.153 216.362 31.153Z" fill="#233C67"/>
<path d="M80.4671 48.7961L79.7769 45.6721C79.7594 45.5772 79.7383 45.4683 79.7137 45.3454C79.6891 45.219 79.6681 45.0838 79.6505 44.9398C79.5978 45.0873 79.5451 45.2225 79.4924 45.3454C79.4398 45.4683 79.3924 45.579 79.3502 45.6773L77.8909 48.7961H80.4671ZM82.1055 51.5935H81.3469C81.259 51.5935 81.1906 51.5724 81.1414 51.5303C81.0922 51.4846 81.0571 51.4267 81.036 51.3564L80.6251 49.5126H77.5537L76.6898 51.3564C76.6582 51.4197 76.609 51.4758 76.5423 51.525C76.479 51.5707 76.407 51.5935 76.3263 51.5935H75.5571L79.2554 44.0442H80.2563L82.1055 51.5935ZM86.7773 47.9795H88.9425L88.5843 50.8612C88.3946 50.9982 88.1979 51.1176 87.9942 51.2195C87.7941 51.3213 87.5816 51.4074 87.3568 51.4776C87.1355 51.5443 86.9002 51.5935 86.6509 51.6251C86.4015 51.6602 86.1328 51.6778 85.8448 51.6778C85.3882 51.6778 84.9738 51.597 84.6015 51.4355C84.2292 51.2704 83.9114 51.0421 83.648 50.7506C83.3846 50.4556 83.1809 50.1044 83.0369 49.697C82.8964 49.2895 82.8261 48.8435 82.8261 48.3588C82.8261 47.7091 82.9262 47.1155 83.1264 46.5782C83.3301 46.0373 83.6093 45.5737 83.9641 45.1874C84.3223 44.7975 84.7455 44.4955 85.2337 44.2812C85.7254 44.067 86.261 43.9599 86.8405 43.9599C87.1355 43.9599 87.4007 43.9845 87.636 44.0336C87.8748 44.0828 88.0908 44.1513 88.284 44.2391C88.4807 44.3269 88.6563 44.4305 88.8108 44.5499C88.9689 44.6693 89.1129 44.7993 89.2428 44.9398L88.9267 45.3507C88.874 45.4244 88.8108 45.4701 88.7371 45.4877C88.6668 45.5052 88.5931 45.4894 88.5158 45.4403C88.4385 45.3946 88.3525 45.3366 88.2577 45.2664C88.1663 45.1926 88.054 45.1242 87.9205 45.0609C87.787 44.9942 87.6272 44.938 87.4411 44.8924C87.2549 44.8432 87.0302 44.8186 86.7668 44.8186C86.3348 44.8186 85.9379 44.9011 85.5761 45.0662C85.2179 45.2313 84.9088 45.4666 84.6489 45.7721C84.3926 46.0777 84.1924 46.4465 84.0484 46.8785C83.9079 47.3105 83.8376 47.7916 83.8376 48.322C83.8376 48.7188 83.8886 49.0753 83.9904 49.3914C84.0958 49.7075 84.2433 49.9762 84.4329 50.1974C84.6226 50.4187 84.8509 50.589 85.1178 50.7084C85.3847 50.8243 85.6815 50.8823 86.0081 50.8823C86.1908 50.8823 86.3611 50.8718 86.5191 50.8507C86.6772 50.8296 86.8265 50.8015 86.9669 50.7664C87.1074 50.7278 87.2409 50.6821 87.3673 50.6294C87.4938 50.5732 87.6202 50.51 87.7466 50.4398L87.9574 48.7329H86.9037C86.8405 48.7329 86.7913 48.7153 86.7562 48.6802C86.7211 48.6416 86.707 48.5959 86.7141 48.5432L86.7773 47.9795ZM98.2005 44.0442L97.268 51.5935H96.4093L97.0941 46.0145C97.1047 45.9442 97.117 45.867 97.131 45.7827C97.1486 45.6984 97.1679 45.6106 97.189 45.5193L94.2441 50.2659C94.1527 50.4169 94.0263 50.4925 93.8647 50.4925H93.7225C93.6452 50.4925 93.5767 50.4731 93.517 50.4345C93.4608 50.3959 93.4205 50.3397 93.3959 50.2659L91.5731 45.5193C91.5696 45.6036 91.5661 45.6879 91.5625 45.7721C91.559 45.8529 91.5538 45.9284 91.5467 45.9987L90.8671 51.5935H89.9979L90.9251 44.0442H91.6521C91.7399 44.0442 91.8031 44.0565 91.8418 44.0811C91.8804 44.1021 91.9243 44.146 91.9735 44.2128L93.8015 48.9594C93.8261 49.0297 93.8472 49.0999 93.8647 49.1701C93.8823 49.2404 93.8999 49.3124 93.9174 49.3861C93.9525 49.3124 93.9877 49.2404 94.0228 49.1701C94.0579 49.0999 94.0965 49.0297 94.1387 48.9594L97.11 44.2128C97.1697 44.1425 97.2223 44.0969 97.268 44.0758C97.3137 44.0547 97.3804 44.0442 97.4682 44.0442H98.2005ZM104.603 50.8296C104.835 50.8296 105.04 50.8103 105.22 50.7717C105.399 50.733 105.557 50.6856 105.694 50.6294C105.831 50.5732 105.947 50.5118 106.041 50.445C106.14 50.3748 106.224 50.3116 106.294 50.2554C106.368 50.1992 106.43 50.1518 106.479 50.1131C106.528 50.0745 106.572 50.0552 106.61 50.0552C106.642 50.0552 106.668 50.0622 106.689 50.0763C106.71 50.0868 106.728 50.1009 106.742 50.1184L107.085 50.5451C106.754 50.9034 106.373 51.1826 105.941 51.3828C105.513 51.5795 105.012 51.6778 104.44 51.6778C103.987 51.6778 103.581 51.597 103.223 51.4355C102.868 51.2739 102.566 51.0491 102.317 50.7611C102.071 50.4696 101.881 50.1237 101.748 49.7233C101.618 49.3229 101.553 48.8821 101.553 48.401C101.553 47.7442 101.655 47.1436 101.858 46.5993C102.062 46.0549 102.341 45.5878 102.696 45.1979C103.054 44.8046 103.474 44.5008 103.955 44.2865C104.436 44.0688 104.954 43.9599 105.509 43.9599C105.776 43.9599 106.019 43.9827 106.236 44.0284C106.454 44.074 106.653 44.1408 106.832 44.2286C107.011 44.3164 107.172 44.4217 107.316 44.5447C107.464 44.6676 107.601 44.8046 107.727 44.9556L107.39 45.3665C107.362 45.4016 107.33 45.4315 107.295 45.4561C107.26 45.4771 107.216 45.4877 107.164 45.4877C107.1 45.4877 107.034 45.4525 106.963 45.3823C106.893 45.3121 106.797 45.2365 106.674 45.1558C106.554 45.0715 106.398 44.9942 106.205 44.924C106.015 44.8537 105.767 44.8186 105.462 44.8186C105.051 44.8186 104.668 44.9011 104.313 45.0662C103.962 45.2278 103.657 45.4613 103.397 45.7669C103.137 46.0689 102.931 46.4359 102.78 46.8679C102.633 47.2999 102.559 47.7846 102.559 48.322C102.559 48.7118 102.61 49.0613 102.712 49.3703C102.814 49.6794 102.954 49.9428 103.133 50.1606C103.316 50.3748 103.532 50.5399 103.781 50.6558C104.031 50.7717 104.305 50.8296 104.603 50.8296ZM109.833 50.935C110.09 50.935 110.322 50.8647 110.529 50.7243C110.74 50.5838 110.919 50.3976 111.066 50.1658C111.217 49.9305 111.333 49.6601 111.414 49.3545C111.495 49.049 111.535 48.7294 111.535 48.3957C111.535 47.904 111.437 47.5352 111.24 47.2894C111.047 47.04 110.768 46.9153 110.402 46.9153C110.143 46.9153 109.907 46.9856 109.696 47.1261C109.489 47.263 109.312 47.4474 109.164 47.6792C109.017 47.911 108.903 48.1797 108.822 48.4853C108.741 48.7908 108.701 49.1104 108.701 49.4441C108.701 49.9358 108.797 50.3081 108.991 50.5609C109.184 50.8103 109.465 50.935 109.833 50.935ZM109.744 51.6673C109.452 51.6673 109.185 51.6181 108.943 51.5198C108.701 51.4179 108.492 51.2721 108.316 51.0825C108.141 50.8928 108.004 50.661 107.905 50.3871C107.807 50.1131 107.758 49.8006 107.758 49.4494C107.758 48.9998 107.828 48.5766 107.969 48.1797C108.109 47.7828 108.302 47.4369 108.548 47.1419C108.794 46.8433 109.082 46.608 109.412 46.4359C109.746 46.2638 110.104 46.1778 110.487 46.1778C110.778 46.1778 111.045 46.2287 111.287 46.3306C111.53 46.4289 111.739 46.5729 111.914 46.7626C112.09 46.9522 112.227 47.184 112.325 47.458C112.424 47.7319 112.473 48.0427 112.473 48.3904C112.473 48.8365 112.403 49.2579 112.262 49.6548C112.122 50.0517 111.928 50.3994 111.683 50.6979C111.44 50.9964 111.152 51.2335 110.819 51.4091C110.485 51.5812 110.127 51.6673 109.744 51.6673ZM114.565 47.6055C114.849 47.1349 115.171 46.7801 115.529 46.5413C115.887 46.299 116.256 46.1778 116.635 46.1778C116.86 46.1778 117.057 46.2235 117.225 46.3148C117.397 46.4026 117.536 46.5325 117.642 46.7046C117.75 46.8767 117.824 47.0892 117.863 47.3421C117.901 47.5914 117.901 47.8759 117.863 48.1955L117.462 51.5935H116.53L116.93 48.1955C116.979 47.7741 116.953 47.4632 116.851 47.263C116.749 47.0593 116.562 46.9575 116.288 46.9575C116.119 46.9575 115.947 47.0032 115.771 47.0945C115.599 47.1858 115.432 47.3157 115.271 47.4843C115.109 47.6529 114.958 47.8566 114.818 48.0954C114.681 48.3307 114.563 48.5941 114.465 48.8857L114.159 51.5935H113.221L113.864 46.2516H114.328C114.539 46.2516 114.644 46.3569 114.644 46.5676L114.565 47.6055ZM122.249 47.1103C122.221 47.1524 122.193 47.184 122.165 47.2051C122.136 47.2227 122.101 47.2314 122.059 47.2314C122.01 47.2314 121.956 47.2121 121.896 47.1735C121.84 47.1349 121.769 47.0927 121.685 47.0471C121.604 46.9979 121.504 46.954 121.385 46.9153C121.265 46.8732 121.121 46.8521 120.953 46.8521C120.795 46.8521 120.651 46.875 120.521 46.9206C120.391 46.9628 120.278 47.0225 120.184 47.0997C120.092 47.177 120.02 47.2683 119.968 47.3737C119.918 47.4755 119.894 47.5844 119.894 47.7003C119.894 47.8654 119.948 47.9971 120.057 48.0954C120.166 48.1938 120.303 48.2798 120.468 48.3536C120.633 48.4238 120.811 48.4923 121 48.559C121.19 48.6258 121.367 48.71 121.532 48.8119C121.697 48.9138 121.834 49.0437 121.943 49.2017C122.052 49.3598 122.107 49.5653 122.107 49.8181C122.107 50.064 122.057 50.2993 121.959 50.5241C121.864 50.7488 121.725 50.9473 121.543 51.1194C121.364 51.288 121.146 51.4232 120.89 51.525C120.637 51.6269 120.352 51.6778 120.036 51.6778C119.695 51.6778 119.393 51.6181 119.13 51.4987C118.87 51.3758 118.658 51.2195 118.493 51.0298L118.724 50.6716C118.756 50.6259 118.789 50.5908 118.824 50.5662C118.863 50.5416 118.912 50.5293 118.972 50.5293C119.028 50.5293 119.084 50.5539 119.141 50.6031C119.197 50.6523 119.267 50.7084 119.351 50.7717C119.436 50.8314 119.541 50.8858 119.667 50.935C119.797 50.9842 119.961 51.0087 120.157 51.0087C120.329 51.0087 120.484 50.9824 120.621 50.9297C120.761 50.877 120.879 50.8068 120.974 50.719C121.072 50.6312 121.146 50.5293 121.195 50.4134C121.248 50.294 121.274 50.1676 121.274 50.0341C121.274 49.855 121.22 49.7128 121.111 49.6074C121.002 49.502 120.865 49.4142 120.7 49.344C120.535 49.2737 120.358 49.2088 120.168 49.1491C119.978 49.0858 119.801 49.0068 119.636 48.912C119.471 48.8137 119.334 48.6872 119.225 48.5327C119.116 48.3782 119.062 48.1727 119.062 47.9163C119.062 47.6915 119.105 47.4755 119.193 47.2683C119.285 47.0576 119.415 46.8714 119.583 46.7099C119.752 46.5483 119.955 46.4201 120.194 46.3253C120.437 46.227 120.709 46.1778 121.011 46.1778C121.33 46.1778 121.611 46.2322 121.854 46.3411C122.1 46.4465 122.31 46.5905 122.486 46.7731L122.249 47.1103ZM127.853 46.2568L127.21 51.5935H126.747C126.518 51.5935 126.404 51.4811 126.404 51.2563L126.483 50.2817C126.202 50.7383 125.884 51.0842 125.53 51.3196C125.179 51.5514 124.817 51.6673 124.444 51.6673C124.22 51.6673 124.021 51.6234 123.849 51.5356C123.677 51.4442 123.537 51.3125 123.428 51.1404C123.322 50.9683 123.25 50.7576 123.212 50.5083C123.173 50.2589 123.175 49.9727 123.217 49.6495L123.617 46.2568H124.55L124.149 49.6495C124.1 50.0675 124.125 50.3783 124.223 50.582C124.325 50.7857 124.515 50.8876 124.792 50.8876C124.954 50.8876 125.121 50.8437 125.293 50.7559C125.465 50.6681 125.63 50.5434 125.788 50.3818C125.946 50.2203 126.093 50.0253 126.23 49.7971C126.371 49.5653 126.49 49.3089 126.589 49.0279L126.921 46.2568H127.853ZM128.631 51.5935L129.574 43.8335H130.495L129.552 51.5935H128.631ZM131.392 50.5873C131.392 50.5662 131.392 50.5399 131.392 50.5083C131.392 50.4731 131.394 50.424 131.398 50.3607C131.405 50.2975 131.413 50.215 131.424 50.1131C131.438 50.0113 131.455 49.8778 131.477 49.7128L131.803 47.0418H131.208C131.159 47.0418 131.118 47.026 131.087 46.9944C131.059 46.9592 131.048 46.9066 131.055 46.8363L131.097 46.4623L131.919 46.3517L132.319 44.7027C132.337 44.65 132.363 44.6079 132.398 44.5763C132.437 44.5411 132.485 44.5236 132.541 44.5236H133.031L132.804 46.3622H134.205L134.126 47.0418H132.72L132.398 49.6653C132.381 49.8093 132.367 49.9252 132.356 50.013C132.346 50.1009 132.337 50.1711 132.33 50.2238C132.326 50.2765 132.323 50.3133 132.319 50.3344C132.319 50.3555 132.319 50.3713 132.319 50.3818C132.319 50.5609 132.362 50.6944 132.446 50.7822C132.53 50.8665 132.643 50.9086 132.783 50.9086C132.878 50.9086 132.959 50.8963 133.025 50.8718C133.096 50.8437 133.157 50.8138 133.21 50.7822C133.262 50.7506 133.306 50.7225 133.341 50.6979C133.377 50.6698 133.406 50.6558 133.431 50.6558C133.463 50.6558 133.485 50.6628 133.5 50.6768C133.517 50.6909 133.533 50.7137 133.547 50.7453L133.747 51.1931C133.575 51.3441 133.378 51.4636 133.157 51.5514C132.939 51.6357 132.72 51.6778 132.499 51.6778C132.158 51.6778 131.889 51.5847 131.693 51.3986C131.499 51.2124 131.399 50.942 131.392 50.5873ZM138.259 46.9101C138.182 46.8925 138.105 46.882 138.027 46.8785C137.954 46.8714 137.88 46.8679 137.806 46.8679C137.595 46.8679 137.392 46.9031 137.195 46.9733C136.998 47.04 136.814 47.1349 136.642 47.2578C136.47 47.3807 136.313 47.5282 136.173 47.7003C136.032 47.8689 135.911 48.055 135.809 48.2587C135.711 48.4624 135.634 48.6802 135.578 48.912C135.521 49.1403 135.493 49.3756 135.493 49.6179C135.493 50.4644 135.764 50.8876 136.305 50.8876C136.477 50.8876 136.645 50.8349 136.81 50.7295C136.975 50.6206 137.132 50.4714 137.279 50.2817C137.43 50.0886 137.569 49.862 137.695 49.6021C137.822 49.3387 137.934 49.0507 138.033 48.7381L138.259 46.9101ZM137.901 50.1869C137.774 50.4117 137.637 50.6154 137.49 50.798C137.346 50.9806 137.191 51.1369 137.026 51.2669C136.865 51.3933 136.693 51.4917 136.51 51.5619C136.331 51.6321 136.145 51.6673 135.952 51.6673C135.741 51.6673 135.549 51.6269 135.377 51.5461C135.205 51.4618 135.058 51.3406 134.935 51.1826C134.815 51.021 134.722 50.8243 134.656 50.5925C134.589 50.3572 134.556 50.0886 134.556 49.7865C134.556 49.4704 134.594 49.1631 134.671 48.8646C134.752 48.5625 134.865 48.2781 135.009 48.0111C135.156 47.7442 135.332 47.5001 135.535 47.2789C135.739 47.0541 135.966 46.8609 136.215 46.6994C136.468 46.5343 136.738 46.4078 137.026 46.32C137.314 46.2287 137.616 46.1831 137.932 46.1831C138.161 46.1831 138.382 46.2024 138.596 46.241C138.814 46.2761 139.028 46.3394 139.239 46.4307L138.602 51.5935H138.117C137.994 51.5935 137.91 51.5619 137.864 51.4987C137.822 51.4355 137.801 51.3582 137.801 51.2669L137.901 50.1869ZM141.328 47.6055C141.612 47.1349 141.934 46.7801 142.292 46.5413C142.65 46.299 143.019 46.1778 143.398 46.1778C143.623 46.1778 143.82 46.2235 143.988 46.3148C144.16 46.4026 144.299 46.5325 144.404 46.7046C144.513 46.8767 144.587 47.0892 144.626 47.3421C144.664 47.5914 144.664 47.8759 144.626 48.1955L144.225 51.5935H143.293L143.693 48.1955C143.742 47.7741 143.716 47.4632 143.614 47.263C143.512 47.0593 143.324 46.9575 143.05 46.9575C142.882 46.9575 142.71 47.0032 142.534 47.0945C142.362 47.1858 142.195 47.3157 142.034 47.4843C141.872 47.6529 141.721 47.8566 141.581 48.0954C141.444 48.3307 141.326 48.5941 141.228 48.8857L140.922 51.5935H139.984L140.627 46.2516H141.091C141.301 46.2516 141.407 46.3569 141.407 46.5676L141.328 47.6055ZM145.931 50.5873C145.931 50.5662 145.931 50.5399 145.931 50.5083C145.931 50.4731 145.933 50.424 145.936 50.3607C145.944 50.2975 145.952 50.215 145.963 50.1131C145.977 50.0113 145.994 49.8778 146.016 49.7128L146.342 47.0418H145.747C145.698 47.0418 145.657 47.026 145.626 46.9944C145.598 46.9592 145.587 46.9066 145.594 46.8363L145.636 46.4623L146.458 46.3517L146.858 44.7027C146.876 44.65 146.902 44.6079 146.937 44.5763C146.976 44.5411 147.024 44.5236 147.08 44.5236H147.57L147.343 46.3622H148.744L148.665 47.0418H147.259L146.937 49.6653C146.92 49.8093 146.906 49.9252 146.895 50.013C146.885 50.1009 146.876 50.1711 146.869 50.2238C146.865 50.2765 146.862 50.3133 146.858 50.3344C146.858 50.3555 146.858 50.3713 146.858 50.3818C146.858 50.5609 146.901 50.6944 146.985 50.7822C147.069 50.8665 147.182 50.9086 147.322 50.9086C147.417 50.9086 147.498 50.8963 147.564 50.8718C147.635 50.8437 147.696 50.8138 147.749 50.7822C147.801 50.7506 147.845 50.7225 147.88 50.6979C147.916 50.6698 147.945 50.6558 147.97 50.6558C148.002 50.6558 148.024 50.6628 148.039 50.6768C148.056 50.6909 148.072 50.7137 148.086 50.7453L148.286 51.1931C148.114 51.3441 147.917 51.4636 147.696 51.5514C147.478 51.6357 147.259 51.6778 147.038 51.6778C146.697 51.6778 146.428 51.5847 146.232 51.3986C146.038 51.2124 145.938 50.942 145.931 50.5873ZM155.871 47.9795H158.036L157.678 50.8612C157.488 50.9982 157.292 51.1176 157.088 51.2195C156.888 51.3213 156.675 51.4074 156.45 51.4776C156.229 51.5443 155.994 51.5935 155.744 51.6251C155.495 51.6602 155.226 51.6778 154.938 51.6778C154.482 51.6778 154.067 51.597 153.695 51.4355C153.323 51.2704 153.005 51.0421 152.742 50.7506C152.478 50.4556 152.274 50.1044 152.13 49.697C151.99 49.2895 151.92 48.8435 151.92 48.3588C151.92 47.7091 152.02 47.1155 152.22 46.5782C152.424 46.0373 152.703 45.5737 153.058 45.1874C153.416 44.7975 153.839 44.4955 154.327 44.2812C154.819 44.067 155.355 43.9599 155.934 43.9599C156.229 43.9599 156.494 43.9845 156.73 44.0336C156.968 44.0828 157.184 44.1513 157.378 44.2391C157.574 44.3269 157.75 44.4305 157.904 44.5499C158.062 44.6693 158.206 44.7993 158.336 44.9398L158.02 45.3507C157.968 45.4244 157.904 45.4701 157.831 45.4877C157.76 45.5052 157.687 45.4894 157.609 45.4403C157.532 45.3946 157.446 45.3366 157.351 45.2664C157.26 45.1926 157.148 45.1242 157.014 45.0609C156.881 44.9942 156.721 44.938 156.535 44.8924C156.349 44.8432 156.124 44.8186 155.86 44.8186C155.428 44.8186 155.032 44.9011 154.67 45.0662C154.312 45.2313 154.002 45.4666 153.743 45.7721C153.486 46.0777 153.286 46.4465 153.142 46.8785C153.002 47.3105 152.931 47.7916 152.931 48.322C152.931 48.7188 152.982 49.0753 153.084 49.3914C153.189 49.7075 153.337 49.9762 153.527 50.1974C153.716 50.4187 153.945 50.589 154.211 50.7084C154.478 50.8243 154.775 50.8823 155.102 50.8823C155.284 50.8823 155.455 50.8718 155.613 50.8507C155.771 50.8296 155.92 50.8015 156.061 50.7664C156.201 50.7278 156.335 50.6821 156.461 50.6294C156.587 50.5732 156.714 50.51 156.84 50.4398L157.051 48.7329H155.997C155.934 48.7329 155.885 48.7153 155.85 48.6802C155.815 48.6416 155.801 48.5959 155.808 48.5432L155.871 47.9795ZM160.132 47.7425C160.272 47.4439 160.423 47.1858 160.585 46.968C160.75 46.7468 160.922 46.5747 161.101 46.4517C161.28 46.3253 161.464 46.2498 161.654 46.2252C161.844 46.1971 162.037 46.2252 162.234 46.3095L162.065 47.2104C161.608 47.0277 161.205 47.0945 160.853 47.4106C160.506 47.7266 160.223 48.2974 160.005 49.1227L159.71 51.5935H158.793L159.436 46.2516H159.9C160.114 46.2516 160.221 46.3569 160.221 46.5676L160.132 47.7425ZM164.275 50.935C164.531 50.935 164.763 50.8647 164.97 50.7243C165.181 50.5838 165.36 50.3976 165.508 50.1658C165.659 49.9305 165.775 49.6601 165.855 49.3545C165.936 49.049 165.977 48.7294 165.977 48.3957C165.977 47.904 165.878 47.5352 165.682 47.2894C165.488 47.04 165.209 46.9153 164.844 46.9153C164.584 46.9153 164.349 46.9856 164.138 47.1261C163.931 47.263 163.753 47.4474 163.606 47.6792C163.458 47.911 163.344 48.1797 163.263 48.4853C163.183 48.7908 163.142 49.1104 163.142 49.4441C163.142 49.9358 163.239 50.3081 163.432 50.5609C163.625 50.8103 163.906 50.935 164.275 50.935ZM164.185 51.6673C163.894 51.6673 163.627 51.6181 163.385 51.5198C163.142 51.4179 162.933 51.2721 162.758 51.0825C162.582 50.8928 162.445 50.661 162.347 50.3871C162.248 50.1131 162.199 49.8006 162.199 49.4494C162.199 48.9998 162.27 48.5766 162.41 48.1797C162.55 47.7828 162.744 47.4369 162.989 47.1419C163.235 46.8433 163.523 46.608 163.853 46.4359C164.187 46.2638 164.545 46.1778 164.928 46.1778C165.22 46.1778 165.487 46.2287 165.729 46.3306C165.971 46.4289 166.18 46.5729 166.356 46.7626C166.531 46.9522 166.668 47.184 166.767 47.458C166.865 47.7319 166.914 48.0427 166.914 48.3904C166.914 48.8365 166.844 49.2579 166.704 49.6548C166.563 50.0517 166.37 50.3994 166.124 50.6979C165.882 50.9964 165.594 51.2335 165.26 51.4091C164.926 51.5812 164.568 51.6673 164.185 51.6673ZM172.489 46.2568L171.846 51.5935H171.382C171.154 51.5935 171.04 51.4811 171.04 51.2563L171.119 50.2817C170.838 50.7383 170.52 51.0842 170.165 51.3196C169.814 51.5514 169.452 51.6673 169.08 51.6673C168.855 51.6673 168.657 51.6234 168.485 51.5356C168.313 51.4442 168.172 51.3125 168.063 51.1404C167.958 50.9683 167.886 50.7576 167.847 50.5083C167.809 50.2589 167.81 49.9727 167.853 49.6495L168.253 46.2568H169.185L168.785 49.6495C168.736 50.0675 168.76 50.3783 168.859 50.582C168.961 50.7857 169.15 50.8876 169.428 50.8876C169.589 50.8876 169.756 50.8437 169.928 50.7559C170.1 50.6681 170.265 50.5434 170.423 50.3818C170.582 50.2203 170.729 50.0253 170.866 49.7971C171.006 49.5653 171.126 49.3089 171.224 49.0279L171.556 46.2568H172.489ZM174.293 50.424C174.427 50.6101 174.587 50.7436 174.773 50.8243C174.959 50.9016 175.149 50.9402 175.342 50.9402C175.524 50.9402 175.697 50.9016 175.858 50.8243C176.02 50.7471 176.167 50.6435 176.301 50.5135C176.434 50.3801 176.554 50.2255 176.659 50.0499C176.764 49.8708 176.852 49.6812 176.922 49.481C176.996 49.2773 177.052 49.0683 177.091 48.854C177.13 48.6363 177.149 48.4221 177.149 48.2113C177.149 47.7934 177.073 47.4755 176.922 47.2578C176.771 47.04 176.559 46.9312 176.285 46.9312C176.116 46.9312 175.946 46.9838 175.774 47.0892C175.602 47.191 175.435 47.335 175.273 47.5212C175.115 47.7073 174.966 47.9286 174.826 48.185C174.689 48.4414 174.569 48.7223 174.467 49.0279L174.293 50.424ZM174.578 47.7056C174.711 47.4738 174.857 47.2648 175.015 47.0787C175.173 46.889 175.34 46.7274 175.516 46.594C175.691 46.4605 175.872 46.3587 176.058 46.2884C176.248 46.2147 176.441 46.1778 176.638 46.1778C177.094 46.1778 177.447 46.3429 177.697 46.673C177.95 47.0032 178.076 47.4861 178.076 48.1218C178.076 48.4098 178.046 48.6978 177.986 48.9857C177.927 49.2737 177.841 49.5494 177.728 49.8129C177.619 50.0728 177.486 50.3168 177.328 50.5451C177.173 50.7699 177 50.9666 176.806 51.1352C176.617 51.3002 176.41 51.4302 176.185 51.525C175.96 51.6198 175.725 51.6673 175.479 51.6673C175.215 51.6673 174.977 51.6163 174.762 51.5145C174.548 51.4091 174.365 51.2616 174.214 51.072L173.93 53.4005H173.019L173.888 46.2516H174.351C174.562 46.2516 174.668 46.3569 174.668 46.5676L174.578 47.7056Z" fill="#65686B"/>
</svg>
